<mxfile host="Electron" modified="2023-05-29T03:09:15.416Z" agent="Mozilla/5.0 (Windows NT 10.0; Win64; x64) AppleWebKit/537.36 (KHTML, like Gecko) draw.io/21.2.8 Chrome/112.0.5615.165 Electron/24.2.0 Safari/537.36" etag="-oBNHZpqGbinbt4gzn_d" version="21.2.8" type="device">
  <diagram name="Page-1" id="MypIYJ_VC6lLoNz6JvYw">
    <mxGraphModel dx="2908" dy="1230" grid="1" gridSize="10" guides="1" tooltips="1" connect="1" arrows="1" fold="1" page="1" pageScale="1" pageWidth="850" pageHeight="1100" math="0" shadow="0">
      <root>
        <mxCell id="0" />
        <mxCell id="1" parent="0" />
        <mxCell id="R9JWc6JHZuCQ-fkrJk65-15" style="edgeStyle=none;curved=1;rounded=0;orthogonalLoop=1;jettySize=auto;html=1;entryX=0.5;entryY=0;entryDx=0;entryDy=0;fontSize=12;startSize=8;endSize=8;" parent="1" source="gUCl52-0bG7ieqgtxes4-1" target="gUCl52-0bG7ieqgtxes4-4" edge="1">
          <mxGeometry relative="1" as="geometry" />
        </mxCell>
        <mxCell id="Ovxw6H_d3MoVYPMGYD2W-6" style="edgeStyle=none;curved=1;rounded=0;orthogonalLoop=1;jettySize=auto;html=1;entryX=1;entryY=0.5;entryDx=0;entryDy=0;fontSize=12;startSize=8;endSize=8;" parent="1" source="gUCl52-0bG7ieqgtxes4-1" target="gUCl52-0bG7ieqgtxes4-23" edge="1">
          <mxGeometry relative="1" as="geometry" />
        </mxCell>
        <mxCell id="Ovxw6H_d3MoVYPMGYD2W-7" style="edgeStyle=none;curved=1;rounded=0;orthogonalLoop=1;jettySize=auto;html=1;entryX=1;entryY=0.5;entryDx=0;entryDy=0;fontSize=12;startSize=8;endSize=8;" parent="1" source="gUCl52-0bG7ieqgtxes4-1" target="gUCl52-0bG7ieqgtxes4-27" edge="1">
          <mxGeometry relative="1" as="geometry" />
        </mxCell>
        <mxCell id="gUCl52-0bG7ieqgtxes4-1" value="PyroParallel API" style="rounded=0;whiteSpace=wrap;html=1;fontSize=16;fillColor=#850C00;fontColor=#ffffff;strokeColor=default;glass=0;shadow=0;" parent="1" vertex="1">
          <mxGeometry x="240" y="600" width="200" height="160" as="geometry" />
        </mxCell>
        <mxCell id="gUCl52-0bG7ieqgtxes4-2" value="&lt;font style=&quot;font-size: 21px;&quot;&gt;PyroParallel API&lt;/font&gt;" style="text;html=1;align=center;verticalAlign=middle;resizable=0;points=[];autosize=1;strokeColor=#314354;fillColor=#647687;fontSize=16;fontColor=#ffffff;rounded=0;" parent="1" vertex="1">
          <mxGeometry x="250" y="10" width="180" height="40" as="geometry" />
        </mxCell>
        <mxCell id="gUCl52-0bG7ieqgtxes4-4" value="methods" style="swimlane;fontStyle=0;childLayout=stackLayout;horizontal=1;startSize=30;horizontalStack=0;resizeParent=1;resizeParentMax=0;resizeLast=0;collapsible=1;marginBottom=0;whiteSpace=wrap;html=1;fontSize=16;rounded=0;" parent="1" vertex="1">
          <mxGeometry x="220" y="820" width="240" height="150" as="geometry" />
        </mxCell>
        <mxCell id="gUCl52-0bG7ieqgtxes4-6" value="&lt;div style=&quot;color: rgb(204, 204, 204); background-color: rgb(31, 31, 31); font-family: Consolas, &amp;quot;Courier New&amp;quot;, monospace; font-size: 14px; line-height: 19px;&quot;&gt;__init__&lt;/div&gt;" style="text;strokeColor=none;fillColor=none;align=left;verticalAlign=middle;spacingLeft=4;spacingRight=4;overflow=hidden;points=[[0,0.5],[1,0.5]];portConstraint=eastwest;rotatable=0;whiteSpace=wrap;html=1;fontSize=16;rounded=0;" parent="gUCl52-0bG7ieqgtxes4-4" vertex="1">
          <mxGeometry y="30" width="240" height="30" as="geometry" />
        </mxCell>
        <mxCell id="gUCl52-0bG7ieqgtxes4-5" value="&lt;div style=&quot;color: rgb(204, 204, 204); background-color: rgb(31, 31, 31); font-family: Consolas, &amp;quot;Courier New&amp;quot;, monospace; font-size: 14px; line-height: 19px;&quot;&gt;get_all_devices_contexts&lt;/div&gt;" style="text;strokeColor=none;fillColor=none;align=left;verticalAlign=middle;spacingLeft=4;spacingRight=4;overflow=hidden;points=[[0,0.5],[1,0.5]];portConstraint=eastwest;rotatable=0;whiteSpace=wrap;html=1;fontSize=16;rounded=0;" parent="gUCl52-0bG7ieqgtxes4-4" vertex="1">
          <mxGeometry y="60" width="240" height="30" as="geometry" />
        </mxCell>
        <mxCell id="gUCl52-0bG7ieqgtxes4-7" value="&lt;div style=&quot;color: rgb(204, 204, 204); background-color: rgb(31, 31, 31); font-family: Consolas, &amp;quot;Courier New&amp;quot;, monospace; font-size: 14px; line-height: 19px;&quot;&gt;get_all_platform_contexts&lt;/div&gt;" style="text;strokeColor=none;fillColor=none;align=left;verticalAlign=middle;spacingLeft=4;spacingRight=4;overflow=hidden;points=[[0,0.5],[1,0.5]];portConstraint=eastwest;rotatable=0;whiteSpace=wrap;html=1;fontSize=16;rounded=0;" parent="gUCl52-0bG7ieqgtxes4-4" vertex="1">
          <mxGeometry y="90" width="240" height="30" as="geometry" />
        </mxCell>
        <mxCell id="gUCl52-0bG7ieqgtxes4-11" value="&lt;div style=&quot;color: rgb(204, 204, 204); background-color: rgb(31, 31, 31); font-family: Consolas, &amp;quot;Courier New&amp;quot;, monospace; font-size: 14px; line-height: 19px;&quot;&gt;benchmark_api&lt;/div&gt;" style="text;strokeColor=none;fillColor=none;align=left;verticalAlign=middle;spacingLeft=4;spacingRight=4;overflow=hidden;points=[[0,0.5],[1,0.5]];portConstraint=eastwest;rotatable=0;whiteSpace=wrap;html=1;fontSize=16;rounded=0;" parent="gUCl52-0bG7ieqgtxes4-4" vertex="1">
          <mxGeometry y="120" width="240" height="30" as="geometry" />
        </mxCell>
        <mxCell id="gUCl52-0bG7ieqgtxes4-14" value="&lt;div style=&quot;font-size: 14px;&quot;&gt;&lt;span style=&quot;background-color: initial;&quot;&gt;&lt;font face=&quot;Consolas, Courier New, monospace&quot; style=&quot;font-size: 14px;&quot;&gt;get all platforms, based on the filter parameters&lt;/font&gt;&lt;/span&gt;&lt;/div&gt;&lt;div style=&quot;font-size: 14px;&quot;&gt;&lt;span style=&quot;background-color: initial;&quot;&gt;&lt;font face=&quot;Consolas, Courier New, monospace&quot; style=&quot;font-size: 14px;&quot;&gt;&lt;br&gt;&lt;/font&gt;&lt;/span&gt;&lt;/div&gt;&lt;div style=&quot;font-size: 14px;&quot;&gt;&lt;span style=&quot;background-color: initial;&quot;&gt;&lt;font face=&quot;Consolas, Courier New, monospace&quot; style=&quot;font-size: 14px;&quot;&gt;get all devices based on the filter parameters&lt;/font&gt;&lt;/span&gt;&lt;/div&gt;" style="shape=note;whiteSpace=wrap;html=1;backgroundOutline=1;darkOpacity=0.05;fontSize=16;fillColor=#e3c800;fontColor=#000000;strokeColor=#B09500;rounded=0;align=left;" parent="1" vertex="1">
          <mxGeometry x="510" y="600" width="190" height="200" as="geometry" />
        </mxCell>
        <mxCell id="gUCl52-0bG7ieqgtxes4-13" style="edgeStyle=none;rounded=0;orthogonalLoop=1;jettySize=auto;html=1;fontSize=12;startSize=8;endSize=8;exitX=1;exitY=0.5;exitDx=0;exitDy=0;entryX=0.5;entryY=1;entryDx=0;entryDy=0;entryPerimeter=0;" parent="1" source="gUCl52-0bG7ieqgtxes4-6" target="gUCl52-0bG7ieqgtxes4-14" edge="1">
          <mxGeometry relative="1" as="geometry">
            <mxPoint x="520" y="845" as="targetPoint" />
            <Array as="points">
              <mxPoint x="605" y="865" />
            </Array>
          </mxGeometry>
        </mxCell>
        <mxCell id="gUCl52-0bG7ieqgtxes4-17" value="&lt;div style=&quot;font-size: 14px;&quot;&gt;&lt;font face=&quot;Consolas, Courier New, monospace&quot;&gt;Get all the contexts for all individual devices&lt;/font&gt;&lt;/div&gt;" style="shape=note;whiteSpace=wrap;html=1;backgroundOutline=1;darkOpacity=0.05;fontSize=16;fillColor=#e3c800;fontColor=#000000;strokeColor=#B09500;align=left;rounded=0;" parent="1" vertex="1">
          <mxGeometry x="720" y="600" width="190" height="200" as="geometry" />
        </mxCell>
        <mxCell id="gUCl52-0bG7ieqgtxes4-16" style="edgeStyle=none;rounded=0;orthogonalLoop=1;jettySize=auto;html=1;fontSize=12;startSize=8;endSize=8;entryX=0.5;entryY=1;entryDx=0;entryDy=0;entryPerimeter=0;" parent="1" source="gUCl52-0bG7ieqgtxes4-5" target="gUCl52-0bG7ieqgtxes4-17" edge="1">
          <mxGeometry relative="1" as="geometry">
            <mxPoint x="670" y="875" as="targetPoint" />
            <Array as="points">
              <mxPoint x="815" y="890" />
            </Array>
          </mxGeometry>
        </mxCell>
        <mxCell id="gUCl52-0bG7ieqgtxes4-18" value="&lt;div style=&quot;font-size: 14px;&quot;&gt;&lt;font face=&quot;Consolas, Courier New, monospace&quot;&gt;Get all the contexts for all individual platforms&lt;/font&gt;&lt;/div&gt;" style="shape=note;whiteSpace=wrap;html=1;backgroundOutline=1;darkOpacity=0.05;fontSize=16;fillColor=#e3c800;fontColor=#000000;strokeColor=#B09500;align=left;rounded=0;" parent="1" vertex="1">
          <mxGeometry x="930" y="600" width="190" height="200" as="geometry" />
        </mxCell>
        <mxCell id="gUCl52-0bG7ieqgtxes4-19" style="edgeStyle=none;rounded=0;orthogonalLoop=1;jettySize=auto;html=1;entryX=0.5;entryY=1;entryDx=0;entryDy=0;entryPerimeter=0;fontSize=12;startSize=8;endSize=8;" parent="1" source="gUCl52-0bG7ieqgtxes4-7" target="gUCl52-0bG7ieqgtxes4-18" edge="1">
          <mxGeometry relative="1" as="geometry">
            <Array as="points">
              <mxPoint x="1025" y="920" />
            </Array>
          </mxGeometry>
        </mxCell>
        <mxCell id="gUCl52-0bG7ieqgtxes4-20" value="&lt;font face=&quot;Consolas, Courier New, monospace&quot;&gt;FONTS&lt;br&gt;&lt;/font&gt;" style="text;html=1;align=center;verticalAlign=middle;resizable=0;points=[];autosize=1;strokeColor=none;fillColor=none;fontSize=16;" parent="1" vertex="1">
          <mxGeometry x="30" y="10" width="70" height="30" as="geometry" />
        </mxCell>
        <mxCell id="gUCl52-0bG7ieqgtxes4-21" value="&lt;div style=&quot;font-size: 14px;&quot;&gt;&lt;font face=&quot;Consolas, Courier New, monospace&quot;&gt;Asses the performance for all devices and platforms&lt;/font&gt;&lt;/div&gt;" style="shape=note;whiteSpace=wrap;html=1;backgroundOutline=1;darkOpacity=0.05;fontSize=16;fillColor=#e3c800;fontColor=#000000;strokeColor=#B09500;align=left;rounded=0;" parent="1" vertex="1">
          <mxGeometry x="1140" y="600" width="190" height="200" as="geometry" />
        </mxCell>
        <mxCell id="gUCl52-0bG7ieqgtxes4-22" style="edgeStyle=none;orthogonalLoop=1;jettySize=auto;html=1;entryX=0.5;entryY=1;entryDx=0;entryDy=0;entryPerimeter=0;fontSize=12;startSize=8;endSize=8;rounded=0;" parent="1" source="gUCl52-0bG7ieqgtxes4-11" target="gUCl52-0bG7ieqgtxes4-21" edge="1">
          <mxGeometry relative="1" as="geometry">
            <Array as="points">
              <mxPoint x="1235" y="950" />
            </Array>
          </mxGeometry>
        </mxCell>
        <mxCell id="Ovxw6H_d3MoVYPMGYD2W-8" style="edgeStyle=none;rounded=0;orthogonalLoop=1;jettySize=auto;html=1;entryX=1;entryY=0.5;entryDx=0;entryDy=0;fontSize=12;startSize=8;endSize=8;" parent="1" source="gUCl52-0bG7ieqgtxes4-23" target="gUCl52-0bG7ieqgtxes4-42" edge="1">
          <mxGeometry relative="1" as="geometry">
            <Array as="points">
              <mxPoint x="-230" y="630" />
              <mxPoint x="-230" y="535" />
            </Array>
          </mxGeometry>
        </mxCell>
        <mxCell id="Ovxw6H_d3MoVYPMGYD2W-17" value="uses" style="edgeStyle=none;curved=1;rounded=0;orthogonalLoop=1;jettySize=auto;html=1;entryX=1;entryY=0;entryDx=0;entryDy=0;fontSize=12;startSize=8;endSize=8;exitX=0;exitY=1;exitDx=0;exitDy=0;" parent="1" source="gUCl52-0bG7ieqgtxes4-23" target="gUCl52-0bG7ieqgtxes4-30" edge="1">
          <mxGeometry x="-0.1232" y="-4" relative="1" as="geometry">
            <mxPoint as="offset" />
          </mxGeometry>
        </mxCell>
        <mxCell id="Ovxw6H_d3MoVYPMGYD2W-18" value="includes" style="edgeStyle=none;curved=1;rounded=0;orthogonalLoop=1;jettySize=auto;html=1;entryX=1;entryY=0;entryDx=0;entryDy=0;fontSize=12;startSize=8;endSize=8;" parent="1" source="gUCl52-0bG7ieqgtxes4-23" target="R9JWc6JHZuCQ-fkrJk65-7" edge="1">
          <mxGeometry relative="1" as="geometry" />
        </mxCell>
        <mxCell id="zfPwo6QJiu9TpXaW8AaQ-2" value="uses" style="edgeStyle=none;curved=1;rounded=0;orthogonalLoop=1;jettySize=auto;html=1;entryX=1;entryY=0;entryDx=0;entryDy=0;fontSize=12;startSize=8;endSize=8;" edge="1" parent="1" source="gUCl52-0bG7ieqgtxes4-23" target="zfPwo6QJiu9TpXaW8AaQ-1">
          <mxGeometry x="-0.6134" y="-6" relative="1" as="geometry">
            <mxPoint as="offset" />
          </mxGeometry>
        </mxCell>
        <mxCell id="gUCl52-0bG7ieqgtxes4-23" value="&lt;font face=&quot;Consolas, Courier New, monospace&quot;&gt;OpenCLDevice&lt;/font&gt;" style="rounded=0;whiteSpace=wrap;html=1;fontSize=16;fillColor=#647687;fontColor=#ffffff;strokeColor=#314354;glass=0;shadow=0;" parent="1" vertex="1">
          <mxGeometry x="30" y="600" width="140" height="50" as="geometry" />
        </mxCell>
        <mxCell id="Ovxw6H_d3MoVYPMGYD2W-2" style="edgeStyle=none;rounded=0;orthogonalLoop=1;jettySize=auto;html=1;entryX=0.5;entryY=0;entryDx=0;entryDy=0;fontSize=12;startSize=8;endSize=8;exitX=0.5;exitY=1;exitDx=0;exitDy=0;" parent="1" source="gUCl52-0bG7ieqgtxes4-27" target="gUCl52-0bG7ieqgtxes4-33" edge="1">
          <mxGeometry relative="1" as="geometry">
            <Array as="points" />
          </mxGeometry>
        </mxCell>
        <mxCell id="Ovxw6H_d3MoVYPMGYD2W-15" value="uses" style="edgeStyle=none;curved=1;rounded=0;orthogonalLoop=1;jettySize=auto;html=1;entryX=1;entryY=1;entryDx=0;entryDy=0;fontSize=12;startSize=8;endSize=8;" parent="1" source="gUCl52-0bG7ieqgtxes4-27" target="gUCl52-0bG7ieqgtxes4-30" edge="1">
          <mxGeometry x="-0.2839" y="1" relative="1" as="geometry">
            <mxPoint as="offset" />
          </mxGeometry>
        </mxCell>
        <mxCell id="Ovxw6H_d3MoVYPMGYD2W-16" value="includes" style="edgeStyle=none;curved=1;rounded=0;orthogonalLoop=1;jettySize=auto;html=1;entryX=1;entryY=1;entryDx=0;entryDy=0;fontSize=12;startSize=8;endSize=8;" parent="1" source="gUCl52-0bG7ieqgtxes4-27" target="R9JWc6JHZuCQ-fkrJk65-7" edge="1">
          <mxGeometry x="-0.6436" y="-3" relative="1" as="geometry">
            <mxPoint as="offset" />
          </mxGeometry>
        </mxCell>
        <mxCell id="zfPwo6QJiu9TpXaW8AaQ-3" value="uses" style="edgeStyle=none;curved=1;rounded=0;orthogonalLoop=1;jettySize=auto;html=1;entryX=1;entryY=1;entryDx=0;entryDy=0;fontSize=12;startSize=8;endSize=8;" edge="1" parent="1" source="gUCl52-0bG7ieqgtxes4-27" target="zfPwo6QJiu9TpXaW8AaQ-1">
          <mxGeometry relative="1" as="geometry" />
        </mxCell>
        <mxCell id="gUCl52-0bG7ieqgtxes4-27" value="&lt;font face=&quot;Consolas, Courier New, monospace&quot;&gt;OpenCLPlatform&lt;/font&gt;" style="rounded=0;whiteSpace=wrap;html=1;fontSize=16;fillColor=#6d8764;strokeColor=#3A5431;glass=0;shadow=0;fontColor=#ffffff;" parent="1" vertex="1">
          <mxGeometry x="30" y="690" width="140" height="80" as="geometry" />
        </mxCell>
        <mxCell id="Ovxw6H_d3MoVYPMGYD2W-13" style="edgeStyle=none;curved=1;rounded=0;orthogonalLoop=1;jettySize=auto;html=1;entryX=1;entryY=0.5;entryDx=0;entryDy=0;fontSize=12;startSize=8;endSize=8;exitX=0;exitY=0.5;exitDx=0;exitDy=0;" parent="1" source="gUCl52-0bG7ieqgtxes4-30" target="gUCl52-0bG7ieqgtxes4-49" edge="1">
          <mxGeometry relative="1" as="geometry" />
        </mxCell>
        <mxCell id="gUCl52-0bG7ieqgtxes4-30" value="&lt;font face=&quot;Consolas, Courier New, monospace&quot;&gt;OpenCLVersion&lt;/font&gt;" style="rounded=0;whiteSpace=wrap;html=1;fontSize=16;fillColor=#76608a;fontColor=#ffffff;strokeColor=#432D57;glass=0;shadow=0;" parent="1" vertex="1">
          <mxGeometry x="-390" y="760" width="140" height="50" as="geometry" />
        </mxCell>
        <mxCell id="gUCl52-0bG7ieqgtxes4-32" style="edgeStyle=none;curved=1;orthogonalLoop=1;jettySize=auto;html=1;exitX=0.5;exitY=0;exitDx=0;exitDy=0;fontSize=12;startSize=8;endSize=8;" parent="1" source="gUCl52-0bG7ieqgtxes4-23" target="gUCl52-0bG7ieqgtxes4-23" edge="1">
          <mxGeometry relative="1" as="geometry" />
        </mxCell>
        <mxCell id="gUCl52-0bG7ieqgtxes4-33" value="methods" style="swimlane;fontStyle=0;childLayout=stackLayout;horizontal=1;startSize=30;horizontalStack=0;resizeParent=1;resizeParentMax=0;resizeLast=0;collapsible=1;marginBottom=0;whiteSpace=wrap;html=1;fontSize=16;rounded=0;" parent="1" vertex="1">
          <mxGeometry x="-60" y="820" width="240" height="180" as="geometry" />
        </mxCell>
        <mxCell id="gUCl52-0bG7ieqgtxes4-34" value="&lt;div style=&quot;color: rgb(204, 204, 204); background-color: rgb(31, 31, 31); font-family: Consolas, &amp;quot;Courier New&amp;quot;, monospace; font-size: 14px; line-height: 19px;&quot;&gt;__init__&lt;/div&gt;" style="text;strokeColor=none;fillColor=none;align=left;verticalAlign=middle;spacingLeft=4;spacingRight=4;overflow=hidden;points=[[0,0.5],[1,0.5]];portConstraint=eastwest;rotatable=0;whiteSpace=wrap;html=1;fontSize=16;rounded=0;" parent="gUCl52-0bG7ieqgtxes4-33" vertex="1">
          <mxGeometry y="30" width="240" height="30" as="geometry" />
        </mxCell>
        <mxCell id="gUCl52-0bG7ieqgtxes4-35" value="&lt;div style=&quot;color: rgb(204, 204, 204); background-color: rgb(31, 31, 31); font-family: Consolas, &amp;quot;Courier New&amp;quot;, monospace; font-size: 14px; line-height: 19px;&quot;&gt;_benchmark_grayscale&lt;/div&gt;" style="text;strokeColor=none;fillColor=none;align=left;verticalAlign=middle;spacingLeft=4;spacingRight=4;overflow=hidden;points=[[0,0.5],[1,0.5]];portConstraint=eastwest;rotatable=0;whiteSpace=wrap;html=1;fontSize=16;rounded=0;" parent="gUCl52-0bG7ieqgtxes4-33" vertex="1">
          <mxGeometry y="60" width="240" height="30" as="geometry" />
        </mxCell>
        <mxCell id="gUCl52-0bG7ieqgtxes4-36" value="&lt;div style=&quot;color: rgb(204, 204, 204); background-color: rgb(31, 31, 31); font-family: Consolas, &amp;quot;Courier New&amp;quot;, monospace; font-size: 14px; line-height: 19px;&quot;&gt;&lt;div style=&quot;line-height: 19px;&quot;&gt;_benchmark_double_precision&lt;/div&gt;&lt;/div&gt;" style="text;strokeColor=none;fillColor=none;align=left;verticalAlign=middle;spacingLeft=4;spacingRight=4;overflow=hidden;points=[[0,0.5],[1,0.5]];portConstraint=eastwest;rotatable=0;whiteSpace=wrap;html=1;fontSize=16;rounded=0;" parent="gUCl52-0bG7ieqgtxes4-33" vertex="1">
          <mxGeometry y="90" width="240" height="30" as="geometry" />
        </mxCell>
        <mxCell id="gUCl52-0bG7ieqgtxes4-37" value="&lt;div style=&quot;color: rgb(204, 204, 204); background-color: rgb(31, 31, 31); font-family: Consolas, &amp;quot;Courier New&amp;quot;, monospace; font-size: 14px; line-height: 19px;&quot;&gt;&lt;div style=&quot;line-height: 19px;&quot;&gt;_benchmark_edge_detection&lt;/div&gt;&lt;/div&gt;" style="text;strokeColor=none;fillColor=none;align=left;verticalAlign=middle;spacingLeft=4;spacingRight=4;overflow=hidden;points=[[0,0.5],[1,0.5]];portConstraint=eastwest;rotatable=0;whiteSpace=wrap;html=1;fontSize=16;rounded=0;" parent="gUCl52-0bG7ieqgtxes4-33" vertex="1">
          <mxGeometry y="120" width="240" height="30" as="geometry" />
        </mxCell>
        <mxCell id="gUCl52-0bG7ieqgtxes4-45" value="&lt;div style=&quot;color: rgb(204, 204, 204); background-color: rgb(31, 31, 31); font-family: Consolas, &amp;quot;Courier New&amp;quot;, monospace; font-size: 14px; line-height: 19px;&quot;&gt;&lt;div style=&quot;line-height: 19px;&quot;&gt;&lt;div style=&quot;line-height: 19px;&quot;&gt;_benchmark&lt;/div&gt;&lt;/div&gt;&lt;/div&gt;" style="text;strokeColor=none;fillColor=none;align=left;verticalAlign=middle;spacingLeft=4;spacingRight=4;overflow=hidden;points=[[0,0.5],[1,0.5]];portConstraint=eastwest;rotatable=0;whiteSpace=wrap;html=1;fontSize=16;rounded=0;" parent="gUCl52-0bG7ieqgtxes4-33" vertex="1">
          <mxGeometry y="150" width="240" height="30" as="geometry" />
        </mxCell>
        <mxCell id="gUCl52-0bG7ieqgtxes4-39" value="methods" style="swimlane;fontStyle=0;childLayout=stackLayout;horizontal=1;startSize=30;horizontalStack=0;resizeParent=1;resizeParentMax=0;resizeLast=0;collapsible=1;marginBottom=0;whiteSpace=wrap;html=1;fontSize=16;rounded=0;" parent="1" vertex="1">
          <mxGeometry x="-690" y="430" width="240" height="180" as="geometry" />
        </mxCell>
        <mxCell id="gUCl52-0bG7ieqgtxes4-40" value="&lt;div style=&quot;color: rgb(204, 204, 204); background-color: rgb(31, 31, 31); font-family: Consolas, &amp;quot;Courier New&amp;quot;, monospace; font-size: 14px; line-height: 19px;&quot;&gt;__init__&lt;/div&gt;" style="text;strokeColor=none;fillColor=none;align=left;verticalAlign=middle;spacingLeft=4;spacingRight=4;overflow=hidden;points=[[0,0.5],[1,0.5]];portConstraint=eastwest;rotatable=0;whiteSpace=wrap;html=1;fontSize=16;rounded=0;" parent="gUCl52-0bG7ieqgtxes4-39" vertex="1">
          <mxGeometry y="30" width="240" height="30" as="geometry" />
        </mxCell>
        <mxCell id="gUCl52-0bG7ieqgtxes4-41" value="&lt;div style=&quot;color: rgb(204, 204, 204); background-color: rgb(31, 31, 31); font-family: Consolas, &amp;quot;Courier New&amp;quot;, monospace; font-size: 14px; line-height: 19px;&quot;&gt;&lt;div style=&quot;line-height: 19px;&quot;&gt;_benchmark_grayscale&lt;/div&gt;&lt;/div&gt;" style="text;strokeColor=none;fillColor=none;align=left;verticalAlign=middle;spacingLeft=4;spacingRight=4;overflow=hidden;points=[[0,0.5],[1,0.5]];portConstraint=eastwest;rotatable=0;whiteSpace=wrap;html=1;fontSize=16;rounded=0;" parent="gUCl52-0bG7ieqgtxes4-39" vertex="1">
          <mxGeometry y="60" width="240" height="30" as="geometry" />
        </mxCell>
        <mxCell id="gUCl52-0bG7ieqgtxes4-42" value="&lt;div style=&quot;color: rgb(204, 204, 204); background-color: rgb(31, 31, 31); font-family: Consolas, &amp;quot;Courier New&amp;quot;, monospace; font-size: 14px; line-height: 19px;&quot;&gt;&lt;div style=&quot;line-height: 19px;&quot;&gt;_benchmark_double_precision&lt;/div&gt;&lt;/div&gt;" style="text;strokeColor=none;fillColor=none;align=left;verticalAlign=middle;spacingLeft=4;spacingRight=4;overflow=hidden;points=[[0,0.5],[1,0.5]];portConstraint=eastwest;rotatable=0;whiteSpace=wrap;html=1;fontSize=16;rounded=0;" parent="gUCl52-0bG7ieqgtxes4-39" vertex="1">
          <mxGeometry y="90" width="240" height="30" as="geometry" />
        </mxCell>
        <mxCell id="gUCl52-0bG7ieqgtxes4-43" value="&lt;div style=&quot;color: rgb(204, 204, 204); background-color: rgb(31, 31, 31); font-family: Consolas, &amp;quot;Courier New&amp;quot;, monospace; font-size: 14px; line-height: 19px;&quot;&gt;&lt;div style=&quot;line-height: 19px;&quot;&gt;_benchmark_edge_detection&lt;/div&gt;&lt;/div&gt;" style="text;strokeColor=none;fillColor=none;align=left;verticalAlign=middle;spacingLeft=4;spacingRight=4;overflow=hidden;points=[[0,0.5],[1,0.5]];portConstraint=eastwest;rotatable=0;whiteSpace=wrap;html=1;fontSize=16;rounded=0;" parent="gUCl52-0bG7ieqgtxes4-39" vertex="1">
          <mxGeometry y="120" width="240" height="30" as="geometry" />
        </mxCell>
        <mxCell id="gUCl52-0bG7ieqgtxes4-46" value="&lt;div style=&quot;color: rgb(204, 204, 204); background-color: rgb(31, 31, 31); font-family: Consolas, &amp;quot;Courier New&amp;quot;, monospace; font-size: 14px; line-height: 19px;&quot;&gt;&lt;div style=&quot;line-height: 19px;&quot;&gt;&lt;div style=&quot;line-height: 19px;&quot;&gt;_benchmark&lt;/div&gt;&lt;/div&gt;&lt;/div&gt;" style="text;strokeColor=none;fillColor=none;align=left;verticalAlign=middle;spacingLeft=4;spacingRight=4;overflow=hidden;points=[[0,0.5],[1,0.5]];portConstraint=eastwest;rotatable=0;whiteSpace=wrap;html=1;fontSize=16;rounded=0;" parent="gUCl52-0bG7ieqgtxes4-39" vertex="1">
          <mxGeometry y="150" width="240" height="30" as="geometry" />
        </mxCell>
        <mxCell id="gUCl52-0bG7ieqgtxes4-48" value="methods" style="swimlane;fontStyle=0;childLayout=stackLayout;horizontal=1;startSize=30;horizontalStack=0;resizeParent=1;resizeParentMax=0;resizeLast=0;collapsible=1;marginBottom=0;whiteSpace=wrap;html=1;fontSize=16;rounded=0;" parent="1" vertex="1">
          <mxGeometry x="-690" y="770" width="240" height="90" as="geometry" />
        </mxCell>
        <mxCell id="gUCl52-0bG7ieqgtxes4-49" value="&lt;div style=&quot;color: rgb(204, 204, 204); background-color: rgb(31, 31, 31); font-family: Consolas, &amp;quot;Courier New&amp;quot;, monospace; font-size: 14px; line-height: 19px;&quot;&gt;__init__&lt;/div&gt;" style="text;strokeColor=none;fillColor=none;align=left;verticalAlign=middle;spacingLeft=4;spacingRight=4;overflow=hidden;points=[[0,0.5],[1,0.5]];portConstraint=eastwest;rotatable=0;whiteSpace=wrap;html=1;fontSize=16;rounded=0;" parent="gUCl52-0bG7ieqgtxes4-48" vertex="1">
          <mxGeometry y="30" width="240" height="30" as="geometry" />
        </mxCell>
        <mxCell id="gUCl52-0bG7ieqgtxes4-50" value="&lt;div style=&quot;color: rgb(204, 204, 204); background-color: rgb(31, 31, 31); font-family: Consolas, &amp;quot;Courier New&amp;quot;, monospace; font-size: 14px; line-height: 19px;&quot;&gt;&lt;div style=&quot;line-height: 19px;&quot;&gt;&lt;div style=&quot;line-height: 19px;&quot;&gt;compare_to_version&lt;/div&gt;&lt;/div&gt;&lt;/div&gt;" style="text;strokeColor=none;fillColor=none;align=left;verticalAlign=middle;spacingLeft=4;spacingRight=4;overflow=hidden;points=[[0,0.5],[1,0.5]];portConstraint=eastwest;rotatable=0;whiteSpace=wrap;html=1;fontSize=16;rounded=0;" parent="gUCl52-0bG7ieqgtxes4-48" vertex="1">
          <mxGeometry y="60" width="240" height="30" as="geometry" />
        </mxCell>
        <mxCell id="Ovxw6H_d3MoVYPMGYD2W-14" style="edgeStyle=none;curved=1;rounded=0;orthogonalLoop=1;jettySize=auto;html=1;entryX=1;entryY=0.5;entryDx=0;entryDy=0;fontSize=12;startSize=8;endSize=8;exitX=0;exitY=0.5;exitDx=0;exitDy=0;" parent="1" source="R9JWc6JHZuCQ-fkrJk65-7" target="R9JWc6JHZuCQ-fkrJk65-12" edge="1">
          <mxGeometry relative="1" as="geometry" />
        </mxCell>
        <mxCell id="R9JWc6JHZuCQ-fkrJk65-7" value="&lt;font face=&quot;Consolas, Courier New, monospace&quot;&gt;OpenCLKernels&lt;/font&gt;" style="rounded=0;whiteSpace=wrap;html=1;fontSize=16;fillColor=#76608a;fontColor=#ffffff;strokeColor=#432D57;glass=0;shadow=0;" parent="1" vertex="1">
          <mxGeometry x="-390" y="690" width="140" height="50" as="geometry" />
        </mxCell>
        <mxCell id="R9JWc6JHZuCQ-fkrJk65-10" value="kernels" style="swimlane;fontStyle=0;childLayout=stackLayout;horizontal=1;startSize=30;horizontalStack=0;resizeParent=1;resizeParentMax=0;resizeLast=0;collapsible=1;marginBottom=0;whiteSpace=wrap;html=1;fontSize=16;rounded=0;" parent="1" vertex="1">
          <mxGeometry x="-690" y="630" width="240" height="120" as="geometry" />
        </mxCell>
        <mxCell id="R9JWc6JHZuCQ-fkrJk65-11" value="&lt;div style=&quot;color: rgb(204, 204, 204); background-color: rgb(31, 31, 31); font-family: Consolas, &amp;quot;Courier New&amp;quot;, monospace; font-size: 14px; line-height: 19px;&quot;&gt;&lt;div style=&quot;line-height: 19px;&quot;&gt;GRAYSCALE&lt;/div&gt;&lt;/div&gt;" style="text;strokeColor=none;fillColor=none;align=left;verticalAlign=middle;spacingLeft=4;spacingRight=4;overflow=hidden;points=[[0,0.5],[1,0.5]];portConstraint=eastwest;rotatable=0;whiteSpace=wrap;html=1;fontSize=16;rounded=0;" parent="R9JWc6JHZuCQ-fkrJk65-10" vertex="1">
          <mxGeometry y="30" width="240" height="30" as="geometry" />
        </mxCell>
        <mxCell id="R9JWc6JHZuCQ-fkrJk65-12" value="&lt;div style=&quot;color: rgb(204, 204, 204); background-color: rgb(31, 31, 31); font-family: Consolas, &amp;quot;Courier New&amp;quot;, monospace; font-size: 14px; line-height: 19px;&quot;&gt;&lt;div style=&quot;line-height: 19px;&quot;&gt;&lt;div style=&quot;line-height: 19px;&quot;&gt;&lt;div style=&quot;line-height: 19px;&quot;&gt;EDGE_DETECTION&lt;/div&gt;&lt;/div&gt;&lt;/div&gt;&lt;/div&gt;" style="text;strokeColor=none;fillColor=none;align=left;verticalAlign=middle;spacingLeft=4;spacingRight=4;overflow=hidden;points=[[0,0.5],[1,0.5]];portConstraint=eastwest;rotatable=0;whiteSpace=wrap;html=1;fontSize=16;rounded=0;" parent="R9JWc6JHZuCQ-fkrJk65-10" vertex="1">
          <mxGeometry y="60" width="240" height="30" as="geometry" />
        </mxCell>
        <mxCell id="R9JWc6JHZuCQ-fkrJk65-14" value="&lt;div style=&quot;color: rgb(204, 204, 204); background-color: rgb(31, 31, 31); font-family: Consolas, &amp;quot;Courier New&amp;quot;, monospace; font-size: 14px; line-height: 19px;&quot;&gt;&lt;div style=&quot;line-height: 19px;&quot;&gt;&lt;div style=&quot;line-height: 19px;&quot;&gt;&lt;div style=&quot;line-height: 19px;&quot;&gt;DOUBLE_PRECISION&lt;/div&gt;&lt;/div&gt;&lt;/div&gt;&lt;/div&gt;" style="text;strokeColor=none;fillColor=none;align=left;verticalAlign=middle;spacingLeft=4;spacingRight=4;overflow=hidden;points=[[0,0.5],[1,0.5]];portConstraint=eastwest;rotatable=0;whiteSpace=wrap;html=1;fontSize=16;rounded=0;" parent="R9JWc6JHZuCQ-fkrJk65-10" vertex="1">
          <mxGeometry y="90" width="240" height="30" as="geometry" />
        </mxCell>
        <mxCell id="zfPwo6QJiu9TpXaW8AaQ-5" style="edgeStyle=none;rounded=0;orthogonalLoop=1;jettySize=auto;html=1;entryX=0;entryY=0;entryDx=190;entryDy=115;entryPerimeter=0;fontSize=12;startSize=8;endSize=8;" edge="1" parent="1" source="zfPwo6QJiu9TpXaW8AaQ-1" target="zfPwo6QJiu9TpXaW8AaQ-4">
          <mxGeometry relative="1" as="geometry">
            <Array as="points">
              <mxPoint x="-320" y="995" />
            </Array>
          </mxGeometry>
        </mxCell>
        <mxCell id="zfPwo6QJiu9TpXaW8AaQ-1" value="&lt;font face=&quot;Consolas, Courier New, monospace&quot;&gt;OpenCLBuffer&lt;/font&gt;" style="rounded=0;whiteSpace=wrap;html=1;fontSize=16;fillColor=#647687;fontColor=#ffffff;strokeColor=#314354;glass=0;shadow=0;" vertex="1" parent="1">
          <mxGeometry x="-390" y="840" width="140" height="50" as="geometry" />
        </mxCell>
        <mxCell id="zfPwo6QJiu9TpXaW8AaQ-4" value="&lt;div style=&quot;font-size: 14px;&quot;&gt;&lt;font face=&quot;Consolas, Courier New, monospace&quot;&gt;provides a generic way and pattern to store opencl_buffer objects in relation with the inpu/output pattern&lt;/font&gt;&lt;/div&gt;" style="shape=note;whiteSpace=wrap;html=1;backgroundOutline=1;darkOpacity=0.05;fontSize=16;fillColor=#e3c800;fontColor=#000000;strokeColor=#B09500;rounded=0;align=left;" vertex="1" parent="1">
          <mxGeometry x="-630" y="880" width="190" height="200" as="geometry" />
        </mxCell>
      </root>
    </mxGraphModel>
  </diagram>
</mxfile>
